<svg width="18" height="18" viewBox="0 0 18 18" fill="none" xmlns="http://www.w3.org/2000/svg">
<path d="M8.96452 1.85958C10.3768 1.85958 11.7573 2.27836 12.9316 3.06297C14.1058 3.84757 15.021 4.96277 15.5615 6.26752C16.1019 7.57228 16.2433 9.00799 15.9678 10.3931C15.6923 11.7782 15.0122 13.0505 14.0136 14.0492C13.015 15.0478 11.7427 15.7278 10.3576 16.0034C8.97244 16.2789 7.53673 16.1375 6.23197 15.597C4.92722 15.0566 3.81202 14.1414 3.02742 12.9671C2.24281 11.7929 1.82403 10.4123 1.82403 9.00007C1.83134 7.10855 2.58599 5.29658 3.92351 3.95906C5.26103 2.62154 7.073 1.86689 8.96452 1.85958ZM8.96452 0.2728C7.23997 0.279855 5.55616 0.797691 4.12568 1.76093C2.69519 2.72418 1.58215 4.08964 0.927075 5.68495C0.272 7.28026 0.104256 9.03389 0.445021 10.7245C0.785786 12.415 1.61978 13.9667 2.84172 15.1837C4.06366 16.4007 5.61876 17.2283 7.31071 17.5622C9.00265 17.896 10.7556 17.7211 12.3482 17.0595C13.9408 16.398 15.3017 15.2794 16.2591 13.845C17.2165 12.4105 17.7275 10.7246 17.7275 9.00007C17.7275 7.85098 17.5006 6.7132 17.0598 5.65202C16.619 4.59085 15.9729 3.62717 15.1587 2.8163C14.3445 2.00543 13.3782 1.36333 12.3153 0.926849C11.2523 0.490367 10.1136 0.268099 8.96452 0.2728Z" fill="#4EA8DE"/>
</svg>
